<svg xmlns="http://www.w3.org/2000/svg" xmlns:xlink="http://www.w3.org/1999/xlink" version="1.1" x="0px" y="0px" viewBox="0 0 100 125" enable-background="new 0 0 100 100" xml:space="preserve"><path d="M80.905,76.411c0-5.796,4.698-10.493,10.494-10.493c0.358,0,0.711,0.018,1.061,0.054c-1.917-2.067-4.647-3.368-7.688-3.368  c-5.796,0-10.494,4.698-10.494,10.494c0,5.438,4.137,9.909,9.434,10.44C81.976,81.666,80.905,79.167,80.905,76.411z"/><path d="M46.109,14C25.063,14,8,30.32,8,50.453c0,4.466,0.844,8.743,2.38,12.697c9.963,3.024,17.102,6.279,16.7,7.788  c-0.325,1.215-5.464,0.977-12.764-0.391c6.822,9.855,18.511,16.357,31.793,16.357c21.048,0,38.11-16.32,38.11-36.452  C84.22,30.32,67.157,14,46.109,14z M30.093,50.453c-4.271,0-7.732-3.462-7.732-7.733c0-4.271,3.461-7.732,7.732-7.732  c4.271,0,7.732,3.462,7.732,7.732C37.825,46.991,34.363,50.453,30.093,50.453z"/><circle cx="32.302" cy="46.034" r="3.314"/><text x="0" y="115" fill="#000000" font-size="5px" font-weight="bold" font-family="'Helvetica Neue', Helvetica, Arial-Unicode, Arial, Sans-serif">Created by Yi Chen</text><text x="0" y="120" fill="#000000" font-size="5px" font-weight="bold" font-family="'Helvetica Neue', Helvetica, Arial-Unicode, Arial, Sans-serif">from the Noun Project</text></svg>